HIERARCHY
ROOT pelvis
{
  OFFSET 0 100 0
  CHANNELS 6 Xposition Yposition Zposition Zrotation Xrotation Yrotation
  JOINT pelvis_right_femur
  {
    OFFSET -10.78128 -3.44521 -0.5502486
    CHANNELS 3 Zrotation Xrotation Yrotation
    JOINT right_femur_tibia
    {
      OFFSET -0.8047443 -44.0398 -0.1307829
      CHANNELS 3 Zrotation Xrotation Yrotation
      JOINT right_tibia_foot
      {
        OFFSET 3.006224 -47.83518 -5
        CHANNELS 3 Zrotation Xrotation Yrotation
        End Site
        {
          OFFSET 0 -5 15
        }
      }
    }
  }
  JOINT pelvis_left_femur
  {
    OFFSET 10.78128 -3.44521 -0.5502486
    CHANNELS 3 Zrotation Xrotation Yrotation
    JOINT left_femur_tibia
    {
      OFFSET 0.8047443 -44.0398 -0.1307829
      CHANNELS 3 Zrotation Xrotation Yrotation
      JOINT left_tibia_foot
      {
        OFFSET -4.370144 -48.10324 -4.275266
        CHANNELS 3 Zrotation Xrotation Yrotation
        End Site
        {
          OFFSET 0 -5 15
        }
      }
    }
  }
  JOINT pelvis_spine1
  {
    OFFSET 0 6.468898 -3.129235
    CHANNELS 3 Zrotation Xrotation Yrotation
    JOINT spine1
    {
      OFFSET 0 23.15396 4.99043
      CHANNELS 3 Zrotation Xrotation Yrotation
      JOINT spine2
      {
        OFFSET 0 20.79997 -5.064912
        CHANNELS 3 Zrotation Xrotation Yrotation
        JOINT neck
        {
          OFFSET 0 14.38658 9.616178
          CHANNELS 3 Zrotation Xrotation Yrotation
          End Site
          {
            OFFSET 0 20 0
          }
        }
      }
      JOINT right_manubrium
      {
        OFFSET -5.722621 16.35077 3.967754
        CHANNELS 3 Zrotation Xrotation Yrotation
        JOINT right_clavicle
        {
          OFFSET -13.16364 1.694482 -4.693211
          CHANNELS 3 Zrotation Xrotation Yrotation
          JOINT right_humerus
          {
            OFFSET -28.5034 -0.3100689 -2.792744
            CHANNELS 3 Zrotation Xrotation Yrotation
            JOINT right_radius
            {
              OFFSET -25.15693 0.02248979 -1.271978
              CHANNELS 3 Zrotation Xrotation Yrotation
              End Site
              {
                OFFSET -15 0 0
              }
            }
          }
        }
      }
      JOINT left_manubrium
      {
        OFFSET 5.722621 16.35077 3.967754
        CHANNELS 3 Zrotation Xrotation Yrotation
        JOINT left_clavicle
        {
          OFFSET 13.16364 1.694482 -4.693211
          CHANNELS 3 Zrotation Xrotation Yrotation
          JOINT left_humerus
          {
            OFFSET 29.39168 -1.063119 -2.237045
            CHANNELS 3 Zrotation Xrotation Yrotation
            JOINT left_radius
            {
              OFFSET 24.59957 -0.9528479 0.9047498
              CHANNELS 3 Zrotation Xrotation Yrotation
              End Site
              {
                OFFSET 15 -0 -0
              }
            }
          }
        }
      }
    }
  }
}
MOTION
Frames: 11
Frame Time: 0.0416666666667
-786.4132 108.5762 2780.123 -3.679252 -4.859332 -44.37396 -0.1353242 -23.32554 -4.301445 -0 20.69676 -0 -7.592964 5.510804 -1.058562 -5.286513 11.36336 -9.526302 -0 9.414155 -0 1.480394 -18.46616 14.85 -3.608913 -1.357489 8.878226 -2.719802 11.52447 -5.421068 -2.301254 20.13617 9.878326 11.36313 -15.87127 1.413878 4.632707 -22.42858 10.0501 83.21222 41.75974 -10.24102 -0 0 27.73452 -19.80278 5.615168 -0.8234698 11.95534 -28.50425 -2.387092 -94.82599 -1.28298 26.12296 -0 0 4.834489 23.51492 9.167941 -19.12788
-790.0166 107.0408 2784.283 -2.68344 -4.642809 -44.02853 -0.336945 -25.63612 -5.873949 -0 11.37439 -0 -6.557188 5.069713 -1.189158 -5.869486 13.45065 -8.707949 -0 10.32744 -0 1.231454 -20.21485 13.73142 -4.043015 -1.287051 8.632292 -3.115051 10.62306 -5.505425 -2.531734 19.82808 10.85438 12.15788 -16.59454 1.741614 4.961172 -21.70023 9.446789 82.41296 44.04031 -9.408108 -0 0 28.37374 -20.0798 5.756342 -1.54072 13.9181 -28.79317 -0.2440046 -94.60986 -2.236094 23.76623 -0 0 4.797784 24.85661 8.583895 -21.84213
-794.0407 105.4375 2788.721 -1.829366 -4.221084 -43.64715 -0.04234972 -26.72273 -6.714616 -0 5.023538 -0 -5.99813 5.701083 -1.323546 -6.245836 15.16724 -7.775543 -0 12.82298 -0 0.7503798 -20.82106 12.64518 -4.184523 -1.255569 8.268703 -3.226037 9.825294 -5.777209 -2.565048 19.54808 11.55506 12.39717 -17.76799 2.462679 4.791758 -21.15115 9.011072 82.4974 45.29395 -9.436075 -0 0 28.15053 -20.30878 6.241851 -1.912553 15.40645 -28.88342 1.670655 -94.13831 -2.555639 21.46054 -0 0 3.553535 25.95579 8.393281 -24.07148
-798.5085 104.0565 2793.408 -1.436689 -3.70012 -43.28519 0.9483682 -26.51102 -6.624171 -0 2.167722 -0 -6.003886 6.780483 -1.514116 -6.226541 16.34283 -6.924321 -0 17.29703 -0 0.01843122 -20.04344 11.79331 -4.033213 -1.267746 7.841872 -3.05632 9.224703 -6.177378 -2.425325 19.32649 11.95347 12.16439 -19.19942 3.433388 4.224685 -20.73245 8.788043 83.43964 45.44904 -10.41572 -0 0 27.03132 -20.44176 6.937927 -1.962836 16.28881 -28.86807 3.081383 -93.46956 -2.281063 19.42126 -0 0 1.280287 26.77288 8.568929 -25.58416
-803.365 103.1624 2798.266 -1.70201 -3.26771 -43.05494 2.581139 -24.9754 -5.687491 -0 2.548942 -0 -6.482068 7.60681 -1.772715 -5.767911 16.64355 -6.24514 -0 24.03809 -0 -0.790725 -17.92729 11.3953 -3.651945 -1.316254 7.411978 -2.662091 8.880177 -6.624596 -2.161904 19.19701 12.06293 11.59234 -20.67915 4.481624 3.414661 -20.40869 8.776214 84.98611 44.61834 -12.12579 -0 0 25.18201 -20.4464 7.677247 -1.758401 16.53405 -28.81786 3.840889 -92.70672 -1.520975 17.82172 0 0 -1.597384 27.29091 9.019975 -26.28095
-808.4656 102.946 2803.182 -2.589865 -3.115047 -43.09928 4.509807 -22.15237 -4.221935 -0 5.115529 -0 -7.173921 7.5856 -2.109604 -4.990831 15.64182 -5.727003 -0 32.87103 -0 -1.490365 -14.83809 11.54779 -3.127897 -1.384944 7.029674 -2.122282 8.816463 -7.043651 -1.827507 19.19038 11.91759 10.80475 -22.03572 5.464781 2.509091 -20.16993 8.945928 86.81089 43.01511 -14.20192 -0 0 22.86617 -20.31357 8.319114 -1.377147 16.17726 -28.75965 3.919098 -91.96155 -0.4030282 16.77513 0 0 -4.594261 27.50997 9.640393 -26.18203
-813.5978 103.4533 2808.02 -3.820973 -3.344272 -43.52824 6.207049 -18.1781 -2.638648 -0 8.331933 -0 -7.775865 6.377952 -2.518586 -4.116376 12.98413 -5.338351 -0 42.80456 -0 -2.024261 -11.41888 12.17383 -2.543302 -1.454765 6.729621 -1.515131 9.02736 -7.381061 -1.464596 19.32611 11.55647 9.891061 -23.15906 6.292391 1.612212 -20.03215 9.255118 88.64678 40.88494 -16.29845 -0 0 20.36421 -20.05743 8.775757 -0.8841783 15.29096 -28.6786 3.371871 -91.32611 0.9530536 16.33523 0 0 -7.3031 27.44349 10.33854 -25.39053
-818.5495 104.5349 2812.641 -4.997174 -3.918448 -44.34017 7.209356 -13.35104 -1.274425 -0 10.78096 -0 -8.130983 4.02942 -2.918755 -3.336523 8.615247 -5.087279 -0 52.00905 -0 -2.424554 -8.414611 13.10367 -1.963239 -1.50948 6.530065 -0.9068698 9.478043 -7.608791 -1.101653 19.60524 11.01634 8.90767 -23.9978 6.922429 0.7781567 -20.03178 9.657502 90.32624 38.46719 -18.15645 -0 0 17.93765 -19.71166 9.013053 -0.3210633 13.97451 -28.53297 2.316562 -90.85959 2.441041 16.50342 0 0 -9.452686 27.11361 11.04611 -24.05687
-823.1905 105.8739 2816.946 -5.806706 -4.686438 -45.40187 7.366269 -8.115445 -0.2825353 -0 11.73157 -0 -8.300531 0.9906836 -3.165443 -2.702176 2.913124 -4.977311 -0 58.33743 -0 -2.685388 -6.383211 14.18966 -1.434191 -1.539695 6.434973 -0.3482815 10.10795 -7.721614 -0.755409 20.00618 10.33151 7.889368 -24.5449 7.347968 0.02100023 -20.21666 10.10606 91.76239 35.97848 -19.60433 -0 0 15.82007 -19.32369 9.041788 0.2944442 12.35309 -28.27357 0.9157802 -90.58608 3.964749 17.23602 0 0 -10.91072 26.54662 11.71665 -22.35166
-827.5036 107.095 2820.921 -6.172318 -5.445242 -46.52264 6.906444 -2.91304 0.3537434 -0 11.29208 -0 -8.424753 -2.120998 -3.160176 -2.095774 -3.414631 -4.925262 -0 60.16448 -0 -2.757718 -5.461562 15.3552 -0.9859313 -1.544708 6.437106 0.1261773 10.83792 -7.73199 -0.4347734 20.4857 9.535906 6.860287 -24.82189 7.584018 -0.6691714 -20.63376 10.55589 92.91679 33.60431 -20.54087 -0 0 14.2098 -18.94679 8.907272 0.9618422 10.57205 -27.86285 -0.6417653 -90.49852 5.436189 18.4532 0 0 -11.66114 25.77015 12.32176 -20.44424
-831.5529 107.8827 2824.64 -6.232839 -5.988663 -47.55315 6.263738 1.970806 0.7206946 -0 10.10331 -0 -8.538107 -4.923267 -2.923203 -1.302073 -9.620153 -4.776882 -0 56.97412 -0 -2.670847 -5.365503 16.5493 -0.6334052 -1.531834 6.521464 0.4988499 11.58271 -7.664311 -0.1440538 20.98592 8.663626 5.840386 -24.8654 7.657168 -1.310459 -21.31504 10.96794 93.7765 31.48987 -20.92408 -0 0 13.25339 -18.62963 8.677673 1.687511 8.779813 -27.28878 -2.169395 -90.56611 6.779355 20.05016 0 0 -11.77356 24.8118 12.84803 -18.48338
